<?xml version="1.0" encoding="utf-8"?>
<!-- Generator: Adobe Illustrator 19.0.1, SVG Export Plug-In . SVG Version: 6.00 Build 0)  -->
<svg version="1.1" id="Layer_1" xmlns="http://www.w3.org/2000/svg" xmlns:xlink="http://www.w3.org/1999/xlink" x="0px" y="0px"
	 viewBox="-1324.2 1436.7 17.3 17.3" style="enable-background:new -1324.2 1436.7 17.3 17.3;" xml:space="preserve">
<style type="text/css">
	.st0{fill:#B3B3B3;}
</style>
<path class="st0" d="M-1308.9,1444.1h-1.5c0.1,0.4,0.2,0.9,0.2,1.3c0,2.9-2.4,5.3-5.3,5.3s-5.3-2.4-5.3-5.3c0-0.5,0.1-0.9,0.2-1.3
	h-1.5v7.3c0,0.4,0.3,0.7,0.7,0.7h12c0.4,0,0.7-0.3,0.7-0.7v-7.3H-1308.9z M-1308.9,1439.4c0-0.4-0.3-0.7-0.7-0.7h-2
	c-0.4,0-0.7,0.3-0.7,0.7v2c0,0.4,0.3,0.7,0.7,0.7h2c0.4,0,0.7-0.3,0.7-0.7V1439.4z M-1315.6,1442.1c-1.8,0-3.3,1.5-3.3,3.3
	s1.5,3.3,3.3,3.3s3.3-1.5,3.3-3.3C-1312.2,1443.6-1313.7,1442.1-1315.6,1442.1 M-1308.9,1454h-13.3c-1.1,0-2-0.9-2-2v-13.3
	c0-1.1,0.9-2,2-2h13.3c1.1,0,2,0.9,2,2v13.3C-1306.9,1453.1-1307.8,1454-1308.9,1454"/>
</svg>
