<svg id="Layer_1" data-name="Layer 1" xmlns="http://www.w3.org/2000/svg" xmlns:xlink="http://www.w3.org/1999/xlink" width="62" height="38.52" viewBox="0 0 62 38.52"><defs><style>.cls-1{fill:url(#linear-gradient);}</style><linearGradient id="linear-gradient" y1="19.26" x2="62" y2="19.26" gradientUnits="userSpaceOnUse"><stop offset="0" stop-color="#f05a2a"/><stop offset="0.03" stop-color="#f05a2a"/><stop offset="0.98" stop-color="#e80b87"/><stop offset="1" stop-color="#e80a89"/></linearGradient></defs><title>dev-launch</title><path class="cls-1" d="M11.38,38.52c-.56,0-5.32-.1-8.53-3.26A10.13,10.13,0,0,1,0,27.74,10.8,10.8,0,0,1,11.89,17,19.23,19.23,0,0,1,48.1,10.45a14,14,0,0,1,13.9,14c0,12.25-12.48,14-12.61,14h-38ZM10.78,19A8.8,8.8,0,0,0,2,27.74a8.24,8.24,0,0,0,2.25,6.09c2.74,2.71,7.1,2.69,7.17,2.69H49.19c1-.14,10.81-1.86,10.81-12a12,12,0,0,0-12.48-12l-.65,0-.29-.59a17.23,17.23,0,0,0-32.79,6.33l-.07,1.16-1.13-.24A9.27,9.27,0,0,0,10.78,19Z"/></svg>