<svg id="Layer_1" data-name="Layer 1" xmlns="http://www.w3.org/2000/svg" xmlns:xlink="http://www.w3.org/1999/xlink" width="44.07" height="48.5" viewBox="0 0 44.07 48.5"><defs><style>.cls-1{fill:url(#linear-gradient);}</style><linearGradient id="linear-gradient" y1="24.25" x2="44.07" y2="24.25" gradientUnits="userSpaceOnUse"><stop offset="0" stop-color="#f05a2a"/><stop offset="0.03" stop-color="#f05a2a"/><stop offset="0.98" stop-color="#e80b87"/><stop offset="1" stop-color="#e80a89"/></linearGradient></defs><title>dev-launch</title><path class="cls-1" d="M44.07,9.86C44.07,4.33,34.39,0,22,0S0,4.33,0,9.86H0V38.64c0,5.53,9.68,9.86,22,9.86s22-4.33,22-9.86V9.86ZM22,2c12,0,20,4.06,20,7.86h0c0,3.79-8.06,7.84-20,7.84S2,13.65,2,9.86,10.05,2,22,2Zm0,44.5c-12,0-20-4.06-20-7.86V32.83c3.44,3.39,11,5.71,20,5.71s16.59-2.32,20-5.71v5.81C42.07,42.44,34,46.5,22,46.5Zm0-10c-12,0-20-4.07-20-7.86V22.86c3.44,3.4,11,5.71,20,5.71s16.59-2.31,20-5.71v5.82C42.07,32.47,34,36.54,22,36.54Zm0-10c-12,0-20-4.06-20-7.86V14c3.44,3.39,11,5.7,20,5.7s16.59-2.31,20-5.7v4.7C42.07,22.51,34,26.57,22,26.57Z"/></svg>