<svg id="Layer_1" data-name="Layer 1" xmlns="http://www.w3.org/2000/svg" xmlns:xlink="http://www.w3.org/1999/xlink" width="49.04" height="49.04" viewBox="0 0 49.04 49.04"><defs><style>.cls-1{fill:url(#linear-gradient);}</style><linearGradient id="linear-gradient" y1="24.52" x2="49.04" y2="24.52" gradientUnits="userSpaceOnUse"><stop offset="0" stop-color="#f05a2a"/><stop offset="0.03" stop-color="#f05a2a"/><stop offset="0.98" stop-color="#e80b87"/><stop offset="1" stop-color="#e80a89"/></linearGradient></defs><title>dev-launch</title><path class="cls-1" d="M24.53,0,23.47,0C10.09.56,0,10.87,0,24c0,13.8,11,25,24.45,25a24.52,24.52,0,1,0,.08-49ZM2,24.45H13.38a36.49,36.49,0,0,0,1.88,10.27H4.59A23.3,23.3,0,0,1,2,24.45Zm11.37-2H2.07A21.74,21.74,0,0,1,5.41,12.18h10A32,32,0,0,0,13.38,22.45Zm4.07-10.27H31.6a29.24,29.24,0,0,1,2.17,10.27H15.28A29.69,29.69,0,0,1,17.45,12.18ZM15.28,24.45H33.77a34.28,34.28,0,0,1-2,10.27H17.31A34.28,34.28,0,0,1,15.28,24.45Zm20.39,0H47a22.44,22.44,0,0,1-2.48,10.27H33.79A36.14,36.14,0,0,0,35.67,24.45Zm0-2a32,32,0,0,0-2-10.27h9.69a22.2,22.2,0,0,1,3.57,10.27ZM41.9,10.18h-9a35.39,35.39,0,0,0-4.93-7.92A22.56,22.56,0,0,1,41.9,10.18ZM25.09,2a35.56,35.56,0,0,1,5.61,8.17H18.36A35.51,35.51,0,0,1,24,2h1.13Zm-4,.24a35.87,35.87,0,0,0-4.94,7.93H6.83A22.26,22.26,0,0,1,21.13,2.25ZM5.74,36.72H16a49.82,49.82,0,0,0,5.43,10.1A22.44,22.44,0,0,1,5.74,36.72ZM24,47a49.77,49.77,0,0,1-5.94-10.3H31A49.32,49.32,0,0,1,25,47l-.58,0Zm3.63-.22a48.88,48.88,0,0,0,5.42-10.08H43.39A22.6,22.6,0,0,1,27.65,46.8Z"/></svg>