<svg id="Layer_1" data-name="Layer 1" xmlns="http://www.w3.org/2000/svg" xmlns:xlink="http://www.w3.org/1999/xlink" width="28" height="48" viewBox="0 0 28 48"><defs><style>.cls-1{fill:url(#linear-gradient);}.cls-2{fill:url(#linear-gradient-2);}.cls-3{fill:url(#linear-gradient-3);}</style><linearGradient id="linear-gradient" y1="24" x2="28" y2="24" gradientUnits="userSpaceOnUse"><stop offset="0" stop-color="#f05a2a"/><stop offset="0.03" stop-color="#f05a2a"/><stop offset="0.98" stop-color="#e80b87"/><stop offset="1" stop-color="#e80a89"/></linearGradient><linearGradient id="linear-gradient-2" x1="9" y1="43" x2="19" y2="43" xlink:href="#linear-gradient"/><linearGradient id="linear-gradient-3" x1="12" y1="5" x2="16" y2="5" xlink:href="#linear-gradient"/></defs><title>dev-launch</title><path class="cls-1" d="M23,0H5A5,5,0,0,0,0,5V43a5,5,0,0,0,5,5H23a5,5,0,0,0,5-5V5A5,5,0,0,0,23,0ZM5,2H23a3,3,0,0,1,3,3V8H2V5A3,3,0,0,1,5,2Zm21,8V38H2V10ZM23,46H5a3,3,0,0,1-3-3V40H26v3A3,3,0,0,1,23,46Z"/><rect class="cls-2" x="9" y="42" width="10" height="2"/><circle class="cls-3" cx="14" cy="5" r="2"/></svg>