<svg id="Layer_1" data-name="Layer 1" xmlns="http://www.w3.org/2000/svg" xmlns:xlink="http://www.w3.org/1999/xlink" width="47.32" height="49.22" viewBox="0 0 47.32 49.22"><defs><style>.cls-1{fill:url(#linear-gradient);}</style><linearGradient id="linear-gradient" y1="24.61" x2="47.32" y2="24.61" gradientUnits="userSpaceOnUse"><stop offset="0" stop-color="#f05a2a"/><stop offset="0.98" stop-color="#e80b87"/><stop offset="1" stop-color="#e80a89"/></linearGradient></defs><title>dev-launch</title><path class="cls-1" d="M47.32,9.63v6.48h-2V9.63A7.64,7.64,0,0,0,37.69,2H9.63A7.64,7.64,0,0,0,2,9.63V31.25a7.64,7.64,0,0,0,7.63,7.63H24.49L17.56,32,19,30.54l9.34,9.34L19,49.22l-1.41-1.41,6.93-6.93H9.63A9.64,9.64,0,0,1,0,31.25V9.63A9.64,9.64,0,0,1,9.63,0H37.69A9.64,9.64,0,0,1,47.32,9.63ZM26.19,32l7.93,7.92-7.93,7.93,1.42,1.41L37,39.88l-9.34-9.34Z"/></svg>