<?xml version="1.0" encoding="UTF-8"?>
<svg width="50px" height="58px" viewBox="0 0 50 58" version="1.1" xmlns="http://www.w3.org/2000/svg" xmlns:xlink="http://www.w3.org/1999/xlink">
    <!-- Generator: Sketch 50.2 (55047) - http://www.bohemiancoding.com/sketch -->
    <title>globe</title>
    <desc>Created with Sketch.</desc>
    <defs></defs>
    <g id="V5" stroke="none" stroke-width="1" fill="none" fill-rule="evenodd" stroke-linecap="round" stroke-linejoin="round">
        <g id="1_v5-cust-stories-home_desktop" transform="translate(-986.000000, -476.000000)" stroke="#E80A89" stroke-width="1.7">
            <g id="fast-facts" transform="translate(141.000000, 439.000000)">
                <g id="fast-fact-3" transform="translate(800.000000, 0.000000)">
                    <g id="globe" transform="translate(46.000000, 38.000000)">
                        <path d="M39.91995,20.75 C39.91995,31.4268333 31.2610333,40.0833333 20.5866167,40.0833333 C9.90978333,40.0833333 1.25328333,31.4268333 1.25328333,20.75 C1.25328333,10.0731667 9.90978333,1.41666667 20.5866167,1.41666667 C31.2610333,1.41666667 39.91995,10.0731667 39.91995,20.75 L39.91995,20.75 Z" id="Stroke-230"></path>
                        <path d="M19.3782833,47.3333333 L19.3782833,50.9583333" id="Stroke-232"></path>
                        <path d="M21.79495,47.3333333 L21.79495,50.9583333" id="Stroke-234"></path>
                        <path d="M35.0416667,55.7916667 C31.0058333,52.7684167 26.0154167,50.9583333 20.5875833,50.9583333 C15.15975,50.9583333 10.1645,52.7684167 6.12866667,55.7916667 L35.0416667,55.7916667 L35.0416667,55.7916667 Z" id="Stroke-236"></path>
                        <path d="M39.3829667,1.95244167 C49.76255,12.3344417 49.7649667,29.166525 39.3829667,39.548525 C29.0033833,49.9281083 12.1713,49.9281083 1.7893,39.5461083" id="Stroke-238"></path>
                        <path d="M37.6743833,3.661025 L41.09155,0.243858333" id="Stroke-240"></path>
                        <path d="M0.0802333333,41.255175 L3.4974,37.8380083" id="Stroke-242"></path>
                    </g>
                </g>
            </g>
        </g>
    </g>
</svg>