<svg enable-background="new 0 0 218.1 58.3" viewBox="0 0 218.1 58.3" xmlns="http://www.w3.org/2000/svg"><g fill="#fff"><path d="m69.7 29.9c1.5 0 2.4-.8 2.4-2 0-1.3-1-2-2.4-2h-2.3v4.1h2.3zm-4.3-5.8h4.5c2.6 0 4.3 1.5 4.3 3.8 0 2.5-2 3.9-4.5 3.9h-2.2v3.6h-2v-11.3z"/><path d="m79 24.1h2v9.5h6v1.8h-8z"/><path d="m91.4 30.6v-6.5h2v6.4c0 2.1 1.1 3.2 2.9 3.2s2.8-1.1 2.8-3.1v-6.5h2v6.4c0 3.4-1.9 5.1-4.9 5.1-2.9-.1-4.8-1.7-4.8-5"/><path d="m111.6 29.7c1.4 0 2.3-.7 2.3-1.9 0-1.2-.9-1.9-2.3-1.9h-2.9v3.8zm-4.9-5.6h5c1.4 0 2.5.4 3.3 1.1.6.6.9 1.5.9 2.4 0 1.9-1.1 3-2.7 3.4l3 4.3h-2.3l-2.8-3.9h-2.5v3.9h-2v-11.2z"/><path d="m128.1 30.9-2-4.5-1.9 4.5zm-2.8-6.9h1.8l5 11.4h-2.1l-1.1-2.7h-5.3l-1.2 2.7h-2z"/><path d="m136.9 24.1h2v9.5h5.9v1.8h-7.9z"/><path d="m149 33.7 1.2-1.4c1.1.9 2.2 1.5 3.6 1.5 1.2 0 2-.6 2-1.4 0-.8-.5-1.2-2.5-1.7-2.4-.6-3.8-1.3-3.8-3.4 0-1.9 1.6-3.3 3.9-3.3 1.6 0 3 .5 4.1 1.4l-1.1 1.5c-1-.8-2-1.2-3.1-1.2-1.2 0-1.8.6-1.8 1.3 0 .9.5 1.3 2.7 1.8 2.4.6 3.6 1.4 3.6 3.3 0 2.1-1.7 3.4-4 3.4-1.8 0-3.4-.6-4.8-1.8"/><path d="m163.1 24.1h2v11.3h-2z"/><path d="m170.5 29.8c0-3.2 2.4-5.9 5.8-5.9 2 0 3.2.5 4.3 1.5l-1.3 1.5c-.9-.7-1.7-1.2-3.2-1.2-2.1 0-3.7 1.8-3.7 4 0 2.3 1.5 4 3.8 4 1.1 0 2-.3 2.7-.9v-2.1h-2.9v-1.7h4.8v4.7c-1.1 1-2.7 1.8-4.7 1.8-3.3.1-5.6-2.5-5.6-5.7"/><path d="m186.5 24.1h2v4.7h5.4v-4.7h2v11.3h-2v-4.8h-5.4v4.8h-2z"/><path d="m200.9 24.1v1.8h3.6v9.5h2v-9.5h3.6v-1.8z"/><path d="m26.3 21.3v17l14.7-8.5zm-1.8 20v-22.9l19.8 11.5z"/><path d="m22.4 23.3v12.9l11.2-6.5zm-1.6 15.8v-18.5l16 9.2z"/><path d="m30.6 6.3c-13 0-23.5 10.5-23.5 23.5s10.5 23.5 23.5 23.5 23.5-10.5 23.5-23.5-10.6-23.5-23.5-23.5zm21.4 23.5c0 11.8-9.6 21.5-21.5 21.5s-21.4-9.6-21.4-21.5 9.6-21.5 21.5-21.5 21.4 9.7 21.4 21.5z"/></g></svg>