<?xml version="1.0" encoding="utf-8"?>
<!-- Generator: Adobe Illustrator 21.1.0, SVG Export Plug-In . SVG Version: 6.00 Build 0)  -->
<svg version="1.1" id="Layer_1" xmlns="http://www.w3.org/2000/svg" xmlns:xlink="http://www.w3.org/1999/xlink" x="0px" y="0px"
	 width="117.1px" height="80.3px" viewBox="0 0 117.1 80.3" style="enable-background:new 0 0 117.1 80.3;" xml:space="preserve">
<style type="text/css">
	.st0{fill:#FFFFFF;}
</style>
<g>
	<path class="st0" d="M6.6,4.4h3.2c1.9,0,3.1,1.1,3.1,2.7v0c0,1.8-1.5,2.8-3.3,2.8H8v2.6H6.6V4.4L6.6,4.4z M9.7,8.7
		c1.1,0,1.8-0.6,1.8-1.5v0c0-1-0.7-1.5-1.8-1.5H8v2.9H9.7L9.7,8.7z"/>
	<polygon class="st0" points="16.5,4.4 17.9,4.4 17.9,11.3 22.2,11.3 22.2,12.6 16.5,12.6 16.5,4.4 	"/>
	<path class="st0" d="M25.4,9.1V4.4h1.4v4.7c0,1.5,0.8,2.3,2.1,2.3c1.3,0,2.1-0.8,2.1-2.3V4.4h1.4v4.6c0,2.4-1.4,3.7-3.5,3.7
		C26.8,12.7,25.4,11.5,25.4,9.1"/>
	<path class="st0" d="M36.5,4.4h3.6c1,0,1.8,0.3,2.4,0.8C43,5.7,43.2,6.3,43.2,7v0c0,1.3-0.8,2.2-2,2.5l2.2,3.1h-1.7l-2-2.9h-1.8
		v2.9h-1.4V4.4L36.5,4.4z M40.1,8.5c1,0,1.7-0.5,1.7-1.4v0c0-0.9-0.6-1.4-1.7-1.4h-2.1v2.7H40.1L40.1,8.5z"/>
	<path class="st0" d="M50,4.4h1.3l3.6,8.2h-1.5l-0.8-2h-3.9l-0.8,2h-1.5L50,4.4L50,4.4z M52,9.3l-1.4-3.3l-1.4,3.3H52L52,9.3z"/>
	<polygon class="st0" points="58.4,4.4 59.8,4.4 59.8,11.3 64.1,11.3 64.1,12.6 58.4,12.6 58.4,4.4 	"/>
	<path class="st0" d="M67.2,11.4l0.9-1c0.8,0.7,1.6,1.1,2.6,1.1c0.9,0,1.4-0.4,1.4-1v0c0-0.6-0.3-0.9-1.8-1.3
		c-1.7-0.4-2.7-0.9-2.7-2.4v0c0-1.4,1.2-2.4,2.8-2.4c1.2,0,2.1,0.4,3,1l-0.8,1.1c-0.7-0.6-1.5-0.8-2.2-0.8c-0.8,0-1.3,0.4-1.3,1v0
		c0,0.6,0.4,0.9,1.9,1.3c1.7,0.4,2.6,1,2.6,2.4v0c0,1.5-1.2,2.4-2.9,2.4C69.3,12.7,68.2,12.3,67.2,11.4"/>
	<polygon class="st0" points="77.4,4.4 78.8,4.4 78.8,12.6 77.4,12.6 77.4,4.4 	"/>
	<path class="st0" d="M82.8,8.5L82.8,8.5c0-2.3,1.8-4.3,4.2-4.3c1.4,0,2.3,0.4,3.1,1.1l-0.9,1.1c-0.6-0.5-1.3-0.9-2.3-0.9
		c-1.5,0-2.7,1.3-2.7,2.9v0c0,1.7,1.1,2.9,2.8,2.9c0.8,0,1.5-0.2,2-0.6V9.3h-2.1V8h3.5v3.4c-0.8,0.7-2,1.3-3.4,1.3
		C84.4,12.7,82.8,10.9,82.8,8.5"/>
	<polygon class="st0" points="94.4,4.4 95.8,4.4 95.8,7.8 99.7,7.8 99.7,4.4 101.2,4.4 101.2,12.6 99.7,12.6 99.7,9.1 95.8,9.1 
		95.8,12.6 94.4,12.6 94.4,4.4 	"/>
	<polygon class="st0" points="104.8,4.4 104.8,5.7 107.4,5.7 107.4,12.6 108.8,12.6 108.8,5.7 111.4,5.7 111.4,4.4 104.8,4.4 	"/>
	<path class="st0" d="M18.9,21.8V64H30v11.9H6.6V21.8H18.9z"/>
	<path class="st0" d="M111.4,21.8v11.8H100v9.2h10.5v11.9H100V64h11.5v11.9H88V21.8H111.4z"/>
	<rect x="34" y="21.8" class="st0" width="12.7" height="54.1"/>
	<polygon class="st0" points="72.4,21.8 67.4,59.2 62.5,21.8 50,21.8 58.4,75.8 65.1,75.8 69.8,75.8 76.4,75.8 84.7,21.8 	"/>
</g>
</svg>
